<svg width="405" height="523" viewBox="0 0 405 523" fill="none" xmlns="http://www.w3.org/2000/svg">
<path d="M34.4223 82.4103C26.6989 82.4103 20.4382 87.6822 20.4382 94.1832C20.4382 100.684 26.6989 105.956 34.4223 105.956H45.6095C53.3329 105.956 59.5936 100.684 59.5936 94.1832C59.5936 87.6822 53.3329 82.4103 45.6095 82.4103H34.4223Z" fill="#8F9299" fill-opacity="0.14"/>
<path d="M393.1 219.013C377.247 169.078 345.815 123.276 302.203 86.558C302.2 86.5556 302.198 86.5532 302.195 86.5509C258.578 49.8324 204.172 23.368 144.857 10.0199C144.856 10.0199 144.854 10.0187 144.853 10.0187C115.31 3.37058 84.7426 0 54 0C23.2574 0 -7.31033 3.37058 -36.8531 10.0187C-96.1721 23.368 -150.58 49.8312 -194.195 86.5509C-194.198 86.5532 -194.2 86.5556 -194.203 86.558C-237.815 123.275 -269.246 169.077 -285.1 219.013C-292.996 243.886 -297 269.621 -297 295.5C-297 321.379 -292.996 347.114 -285.1 371.987C-269.246 421.923 -237.814 467.725 -194.203 504.442C-194.2 504.444 -194.198 504.447 -194.195 504.449C-150.58 541.168 -96.1721 567.632 -36.8531 580.981C-7.31033 587.629 23.2574 591 54 591C84.7426 591 115.31 587.629 144.853 580.981C144.854 580.981 144.856 580.98 144.857 580.98C204.173 567.632 258.58 541.169 302.195 504.449C302.198 504.447 302.2 504.444 302.203 504.442C345.815 467.725 377.246 421.923 393.1 371.987C400.996 347.114 405 321.379 405 295.5C405 269.621 400.996 243.886 393.1 219.013ZM362.175 213.792L352.393 216L335.122 219.896C322.276 186.037 300.81 154.764 272.295 128.371L292.093 111.705C324.063 141.054 348.032 175.968 362.175 213.792ZM-77.8292 313.05L-100.3 318.119C-101.833 310.669 -102.622 303.101 -102.622 295.5C-102.622 287.899 -101.833 280.331 -100.302 272.881L-77.8306 277.95C-78.9185 283.752 -79.4793 289.621 -79.4793 295.5C-79.4793 301.379 -78.9185 307.248 -77.8292 313.05ZM-93.0928 250.131C-86.8936 235.898 -77.783 222.632 -66.1958 210.96L-49.752 224.804C-58.5535 233.959 -65.5987 244.228 -70.6106 255.202L-93.0928 250.131ZM-120.178 244.019L-200.04 226.006C-188.509 196.124 -169.546 168.504 -144.47 145.061L-86.0238 194.266C-100.992 208.937 -112.589 225.831 -120.178 244.019ZM-127.425 266.761C-129.528 276.214 -130.59 285.838 -130.59 295.5C-130.59 305.162 -129.528 314.786 -127.425 324.239L-207.296 342.255C-211.148 326.931 -213.096 311.252 -213.096 295.5C-213.096 279.748 -211.148 264.069 -207.298 248.745L-127.425 266.761ZM-120.178 346.981C-112.589 365.17 -100.992 382.063 -86.0238 396.734L-144.47 445.939C-169.546 422.496 -188.507 394.876 -200.04 364.994L-120.178 346.981ZM-93.0928 340.869L-70.6106 335.797C-65.6001 346.772 -58.5535 357.04 -49.752 366.196L-66.1958 380.04C-77.783 368.37 -86.8936 355.102 -93.0928 340.869ZM-50.6358 306.915C-51.2175 303.131 -51.5098 299.318 -51.5098 295.5C-51.5098 291.682 -51.2175 287.869 -50.6358 284.085L-0.53363 295.387C-0.53363 295.425 -0.536438 295.462 -0.536438 295.501C-0.536438 295.54 -0.53363 295.577 -0.53363 295.615L-50.6358 306.915ZM81.3682 335.189L118.061 366.08C110.844 370.723 102.944 374.566 94.5775 377.502L81.1458 335.297C81.2186 335.262 81.2941 335.225 81.3682 335.189ZM81.1445 255.702L94.5761 213.497C102.944 216.433 110.844 220.276 118.06 224.919L81.3668 255.81C81.2941 255.775 81.2186 255.738 81.1445 255.702ZM101.145 318.54C101.188 318.477 101.23 318.415 101.273 318.351L151.402 329.659C147.913 336.704 143.35 343.353 137.834 349.428L101.145 318.54ZM101.273 272.649C101.23 272.585 101.188 272.523 101.145 272.46L137.834 241.572C143.35 247.647 147.913 254.296 151.402 261.341L101.273 272.649ZM137.966 208.16C127.092 200.75 114.898 194.822 101.862 190.603L107.885 171.68C124.787 176.897 140.542 184.565 154.406 194.319L137.966 208.16ZM88.1281 142.784C65.6515 139.258 42.3471 139.258 19.8705 142.784L-1.52789 75.5467C16.6765 72.3057 35.2907 70.6375 54 70.6375C72.7093 70.6375 91.3235 72.3057 109.528 75.5467L88.1281 142.784ZM54 273.131C68.6735 273.131 80.5697 283.147 80.5697 295.5C80.5697 307.853 68.6735 317.869 54 317.869C39.3265 317.869 27.4303 307.853 27.4303 295.5C27.4303 283.147 39.3265 273.131 54 273.131ZM40.4438 207.42C49.4356 206.447 58.5644 206.447 67.5562 207.42L54.1357 249.588C54.0909 249.588 54.0461 249.586 54 249.586C53.9539 249.586 53.9105 249.588 53.8643 249.588L40.4438 207.42ZM67.5562 383.58C58.5644 384.553 49.4356 384.553 40.4438 383.58L53.8643 341.412C53.9091 341.412 53.9539 341.414 54 341.414C54.0461 341.414 54.0895 341.412 54.1357 341.412L67.5562 383.58ZM33.1512 406.494C46.9339 408.327 61.0661 408.327 74.8488 406.494L80.8718 425.415C63.175 427.995 44.8264 427.995 27.1282 425.415L33.1512 406.494ZM74.8488 184.506C67.9575 183.59 60.9836 183.128 54 183.128C47.0164 183.128 40.0425 183.59 33.1512 184.506L27.1282 165.585C44.825 163.005 63.1736 163.005 80.8718 165.585L74.8488 184.506ZM6.85553 272.459C6.81219 272.522 6.77023 272.584 6.7269 272.648L-43.4018 261.34C-39.9128 254.295 -35.3498 247.645 -29.8344 241.571L6.85553 272.459ZM-10.061 224.92C-2.84381 220.277 5.05579 216.434 13.4225 213.498L26.8541 255.703C26.7814 255.738 26.7059 255.775 26.6318 255.811L-10.061 224.92ZM6.85553 318.54L-29.8344 349.428C-35.3498 343.353 -39.9128 336.704 -43.4018 329.659L6.7269 318.351C6.77023 318.415 6.81219 318.477 6.85553 318.54ZM26.6318 335.189C26.7059 335.225 26.7814 335.262 26.8555 335.297L13.4238 377.502C5.05576 374.566 -2.84384 370.723 -10.0596 366.08L26.6318 335.189ZM0.113831 171.68L6.13675 190.603C-6.8978 194.822 -19.0919 200.75 -29.9673 208.16L-46.4056 194.32C-32.5432 184.565 -16.7887 176.897 0.113831 171.68ZM-29.9659 382.84C-19.0919 390.25 -6.8978 396.178 6.13815 400.397L0.115204 419.32C-16.7873 414.103 -32.5418 406.435 -46.4056 396.681L-29.9659 382.84ZM19.8691 448.222C31.0941 449.991 42.5219 450.902 54 450.902C65.4781 450.902 76.9059 449.991 88.1309 448.222L109.529 515.453C91.3235 518.694 72.7093 520.363 54 520.363C35.2907 520.363 16.6765 518.694 -1.52789 515.453L19.8691 448.222ZM107.886 419.32L101.863 400.397C114.898 396.178 127.092 390.25 137.967 382.84L154.407 396.681C140.543 406.435 124.789 414.103 107.886 419.32ZM108.535 295.614C108.535 295.577 108.538 295.539 108.538 295.5C108.538 295.461 108.535 295.425 108.535 295.386L158.637 284.084C159.219 287.868 159.511 291.681 159.511 295.499C159.511 299.317 159.219 303.13 158.637 306.914L108.535 295.614ZM185.829 277.95L208.3 272.881C209.833 280.331 210.622 287.899 210.622 295.5C210.622 303.101 209.833 310.669 208.302 318.119L185.831 313.05C186.919 307.248 187.479 301.379 187.479 295.5C187.479 289.621 186.919 283.752 185.829 277.95ZM194.024 194.266L252.47 145.061C277.546 168.504 296.507 196.124 308.04 226.006L228.179 244.019C220.589 225.831 208.992 208.937 194.024 194.266ZM201.093 250.131L178.611 255.202C173.6 244.228 166.554 233.959 157.752 224.804L174.196 210.96C185.783 222.63 194.894 235.898 201.093 250.131ZM178.609 335.797L201.091 340.869C194.892 355.102 185.782 368.368 174.194 380.04L157.751 366.196C166.554 357.04 173.599 346.773 178.609 335.797ZM228.179 346.981L308.04 364.994C296.509 394.876 277.546 422.496 252.47 445.939L194.024 396.734C208.992 382.063 220.589 365.169 228.179 346.981ZM235.425 324.239C237.528 314.786 238.59 305.162 238.59 295.5C238.59 285.838 237.528 276.214 235.425 266.761L315.296 248.745C319.148 264.069 321.096 279.748 321.096 295.5C321.096 311.252 319.148 326.931 315.298 342.255L235.425 324.239ZM143.803 58.8292L151.052 36.0534C195.98 47.9593 237.454 68.1381 272.315 95.0545L252.518 111.72L252.49 111.744C221.139 87.7388 184.007 69.6732 143.792 58.8598L143.803 58.8292ZM232.718 128.391L174.262 177.605C156.833 165.001 136.762 155.235 115.154 148.846L136.556 81.6004C172.049 91.3095 204.871 107.278 232.718 128.391ZM124.034 29.9726L118.313 47.9511L116.786 52.7473C96.2137 48.9906 75.1551 47.0916 54 47.0916C32.8449 47.0916 11.7863 48.9906 -8.78424 52.7473L-10.3113 47.9511L-16.0322 29.9726C29.8174 21.4373 78.1826 21.4373 124.034 29.9726ZM-7.15372 148.846C-28.7605 155.235 -48.8318 165.001 -66.2615 177.605L-124.718 128.391C-96.8713 107.278 -64.0493 91.3095 -28.5563 81.6004L-7.15372 148.846ZM-43.0522 36.0534L-35.8029 58.8292H-35.8015L-35.7917 58.8598C-76.007 69.6732 -113.139 87.7388 -144.49 111.744L-144.518 111.72L-164.316 95.0545C-129.456 68.1392 -87.983 47.9617 -43.0522 36.0534ZM-184.093 111.705L-164.295 128.371C-192.812 154.764 -214.276 186.037 -227.122 219.896L-249.037 214.952L-254.175 213.794C-240.032 175.968 -216.063 141.054 -184.093 111.705ZM-261.399 354.46C-266.469 335.158 -269.032 315.379 -269.032 295.5C-269.032 275.621 -266.469 255.842 -261.399 236.54L-259.877 236.884L-234.309 242.651C-238.769 259.967 -241.064 277.688 -241.064 295.5C-241.064 313.312 -238.769 331.033 -234.308 348.349L-259.875 354.116L-261.399 354.46ZM-254.175 377.206L-249.037 376.048L-227.122 371.104C-214.276 404.963 -192.81 436.236 -164.295 462.629L-184.093 479.295C-216.063 449.946 -240.032 415.032 -254.175 377.206ZM-35.8029 532.171L-43.0522 554.947C-87.9816 543.038 -129.456 522.861 -164.315 495.946L-144.518 479.28L-144.49 479.256C-113.139 503.261 -76.007 521.327 -35.7917 532.14L-35.8029 532.171ZM-124.718 462.609L-66.2615 413.395C-48.8332 425.999 -28.7619 435.765 -7.15372 442.154L-28.5563 509.4C-64.0493 499.69 -96.8713 483.722 -124.718 462.609ZM-16.0336 561.027L-10.3127 543.049L-8.78564 538.253C32.3555 545.765 75.6432 545.765 116.784 538.253L118.311 543.049L124.032 561.027C78.1826 569.563 29.8174 569.563 -16.0336 561.027ZM115.154 442.154C136.76 435.765 156.832 425.999 174.262 413.395L232.718 462.609C204.871 483.722 172.049 499.69 136.556 509.4L115.154 442.154ZM151.052 554.947L143.803 532.171H143.801L143.792 532.14C184.007 521.327 221.139 503.261 252.49 479.256L252.518 479.28L272.315 495.946C237.454 522.862 195.982 543.041 151.052 554.947ZM292.093 479.295L272.295 462.629C300.812 436.236 322.276 404.963 335.122 371.104L357.037 376.048L362.175 377.206C348.032 415.032 324.063 449.946 292.093 479.295ZM369.399 354.46L367.877 354.116L342.309 348.349C346.769 331.033 349.064 313.312 349.064 295.5C349.064 277.688 346.769 259.967 342.308 242.651L367.875 236.884L369.398 236.54C374.469 255.842 377.032 275.621 377.032 295.5C377.032 315.379 374.469 335.158 369.399 354.46Z" fill="#8F9299" fill-opacity="0.14"/>
</svg>
