<svg width="39" height="39" viewBox="0 0 39 39" fill="none" xmlns="http://www.w3.org/2000/svg">
  <path fill="#8F9299"
    d="M38.7135 10.957L35.7981 5.70934C36.2251 4.92068 36.1206 3.96425 35.4777 3.32204C34.8423 2.68603 33.8983 2.57945 33.0979 3.00644L27.8425 0.086962C27.5737 -0.0629313 27.2395 -0.015488 27.0229 0.201789L22.033 5.19159C21.8583 5.36623 21.7903 5.62064 21.8556 5.85854L23.622 12.3342L19.6064 16.349C18.9154 16.2933 18.2017 16.5065 17.699 17.0098L6.40862 28.3006C5.95549 28.7537 5.70589 29.3581 5.70589 30.003C5.70589 30.5786 5.91492 31.1162 6.28073 31.548L0.201639 37.6263C-0.0672131 37.8951 -0.0672131 38.3297 0.201639 38.5985C0.335722 38.7326 0.51106 38.8 0.687086 38.8C0.863112 38.8 1.03914 38.7326 1.17322 38.5985L7.25231 32.5203C7.68412 32.8861 8.22183 33.0944 8.79735 33.0944C9.44163 33.0944 10.0453 32.8448 10.4992 32.3917L21.7903 21.1016C22.2434 20.6485 22.493 20.0441 22.493 19.3998C22.493 19.3228 22.4779 19.2486 22.471 19.1729L26.4653 15.1781L32.9418 16.9445C33.0016 16.9603 33.0621 16.9685 33.1226 16.9685C33.3028 16.9685 33.4781 16.8977 33.6088 16.7671L38.5987 11.7773C38.8153 11.5607 38.8627 11.2258 38.7135 10.957ZM23.2872 5.88192L27.628 1.5412L31.9915 3.96494L24.7421 11.2141L23.2872 5.88192ZM9.52689 31.4195C9.13977 31.8066 8.45492 31.8066 8.06849 31.4195L7.38089 30.7319C7.18767 30.5387 7.08041 30.2795 7.08041 30.003C7.08041 29.726 7.18699 29.4674 7.38089 29.2735L8.62132 28.0331L10.7673 30.1791L9.52689 31.4195ZM11.7396 29.2068L9.59359 27.0609L10.9791 25.6754L13.1251 27.8213L11.7396 29.2068ZM14.0974 26.8491L11.9514 24.7032L13.4744 23.1808L15.6204 25.3268L14.0974 26.8491ZM16.592 24.3539L14.446 22.2079L15.9683 20.6856L18.1144 22.8316L16.592 24.3539ZM20.818 20.1287L19.0873 21.8593L16.9406 19.7134L18.6713 17.9827C18.7421 17.9119 18.8233 17.8576 18.9092 17.8115L19.6099 17.9078C19.9468 17.9538 20.2452 18.0989 20.4735 18.3265L20.4742 18.3272C20.7025 18.5555 20.8469 18.8539 20.893 19.1901L20.9892 19.8914C20.9431 19.9767 20.8881 20.0585 20.818 20.1287ZM25.7756 13.9239L21.8858 17.8136C21.8528 17.7757 21.8267 17.7338 21.7903 17.6974L21.1027 17.0098C21.0669 16.974 21.0236 16.9486 20.9858 16.9156L24.8742 13.0266C24.8749 13.0259 24.8762 13.0252 24.8769 13.0245L33.5847 4.31767C33.835 4.09764 34.2173 4.00482 34.5061 4.29498C34.7983 4.58651 34.7034 4.97018 34.5082 5.19159L25.7756 13.9239ZM32.9184 15.5122L27.5854 14.058L34.8354 6.80878L37.2592 11.1722L32.9184 15.5122Z" />
</svg>
