<svg width="39" height="39" viewBox="0 0 39 39" fill="none" xmlns="http://www.w3.org/2000/svg">
<path d="M38.1483 17.2381L34.8706 14.0959V3.67666C34.8706 3.01371 34.3597 2.47618 33.7295 2.47618H25.8396C25.2094 2.47618 24.6985 3.01363 24.6985 3.67666V4.3443L20.74 0.549451C19.9759 -0.183177 18.8237 -0.183097 18.0599 0.549372L0.651555 17.2381C0.0395463 17.8249 -0.162714 18.7291 0.136319 19.5414C0.435427 20.3538 1.16368 20.8786 1.99175 20.8786H4.77208V37.5994C4.77208 38.2624 5.28292 38.7999 5.91312 38.7999H15.455C16.0851 38.7999 16.596 38.2625 16.596 37.5994V27.4471H22.2039V37.5995C22.2039 38.2625 22.7147 38.8 23.3449 38.8H32.8864C33.5165 38.8 34.0274 38.2625 34.0273 37.5995V20.8787H36.8083C37.6363 20.8787 38.3646 20.3538 38.6637 19.5415C38.9627 18.7291 38.7605 17.8249 38.1483 17.2381ZM32.8864 18.4778C32.2563 18.4778 31.7453 19.0152 31.7453 19.6782V36.399H24.486V26.2466C24.486 25.5837 23.9751 25.0461 23.345 25.0461H15.455C14.8248 25.0461 14.3139 25.5836 14.3139 26.2466V36.399H7.05408V19.6782C7.05408 19.0153 6.54324 18.4778 5.91305 18.4778H2.74668L19.4001 2.51285L25.0712 7.94964C25.4053 8.26983 25.8875 8.35235 26.3007 8.16045C26.714 7.9683 26.9807 7.5376 26.9807 7.06226V4.87713H32.5886V14.6261C32.5886 14.9639 32.7238 15.2859 32.9612 15.5134L36.0533 18.4778H32.8864Z" fill="#8F9299"/>
</svg>
