<svg width="73" height="58" viewBox="0 0 73 58" fill="none" xmlns="http://www.w3.org/2000/svg">
  <path
    d="M65.9345 10.2175C64.7821 9.54848 63.3826 9.31678 62.041 9.57271L57.7476 5.70902C58.0323 4.50712 57.7798 3.2527 57.0445 2.21719C55.5324 0.61345 53.2286 -0.202458 50.9077 0.0438543C48.5024 0.00151947 46.2381 1.06216 44.8967 2.85957C41.8914 6.72325 42.3128 13.6779 44.2796 18.556C44.3467 18.723 44.4539 18.8747 44.5935 19.0003L47.277 21.4151C47.4153 21.5401 47.5832 21.6358 47.7681 21.6952C50.6484 22.6135 53.6802 23.088 56.7359 23.0982C59.7177 23.2214 62.6725 22.5394 65.2208 21.1399C67.2152 19.9351 68.3935 17.9016 68.3497 15.7404C68.6189 13.6519 67.7131 11.5804 65.9345 10.2175Z"
    fill="#86ADC9" />
  <path
    d="M5.29005 57.9994C4.54906 58.0006 3.94731 57.4611 3.94592 56.7942C3.94529 56.4729 4.08717 56.1643 4.34013 55.9373L17.757 43.8632C18.2899 43.3998 19.1394 43.4132 19.6542 43.8928C20.1564 44.3607 20.1564 45.1025 19.6542 45.5705L6.2372 57.6445C5.98626 57.871 5.64551 57.9988 5.29005 57.9994Z"
    fill="#CAC4CE" />
  <path
    d="M49.1741 19.7149L46.4907 17.3002C45.995 16.8541 45.201 16.8267 44.6687 17.2373L26.2206 31.4727C20.9985 32.161 17.3653 42.5833 17.3653 44.718C17.3653 45.3848 17.966 45.9254 18.707 45.9254C21.0792 45.9254 32.6606 42.6559 33.4254 37.9565L49.2412 21.3497C49.695 20.8721 49.6658 20.1611 49.1741 19.7149Z"
    fill="#D71730" />
  <path
    d="M65.2745 2.8111C64.2841 2.00459 62.855 1.80706 61.6412 2.30885C56.2933 3.82782 46.7323 13.1248 45.5408 19.1522C45.4119 19.8088 45.8988 20.4354 46.6284 20.5513C46.7123 20.5648 46.7974 20.5709 46.8824 20.5697C46.9607 20.5693 47.0388 20.5628 47.1159 20.5504C53.8245 19.4879 64.1475 10.8912 65.8326 6.06149C66.3807 4.97448 66.1617 3.69854 65.2745 2.8111Z"
    fill="#66849A" />
  <path
    d="M8.69338 17.6719C8.69338 18.6983 8.30291 19.489 7.52194 20.0439C6.7461 20.5941 5.63374 20.8691 4.18483 20.8691H2.85926V24.8571H1.54907V14.7173H4.46999C7.2856 14.7173 8.69338 15.7022 8.69338 17.6719ZM2.85926 19.8565H4.03841C5.1996 19.8565 6.03964 19.6878 6.55858 19.3503C7.07752 19.0128 7.33698 18.4718 7.33698 17.7274C7.33698 17.0569 7.09293 16.5576 6.60481 16.2293C6.1167 15.901 5.35629 15.7368 4.32357 15.7368H2.85926V19.8565ZM12.1461 24.8571H10.8667V14.0654H12.1461V24.8571ZM20.0534 24.8571L19.7991 23.7753H19.7374C19.3161 24.2515 18.8948 24.575 18.4735 24.7463C18.0573 24.9126 17.5358 24.9958 16.909 24.9958C16.0715 24.9958 15.4138 24.8017 14.936 24.4133C14.4633 24.0248 14.227 23.4722 14.227 22.7557C14.227 21.2205 15.5911 20.416 18.3193 20.342L19.7528 20.3004V19.8289C19.7528 19.2324 19.609 18.7931 19.3212 18.5111C19.0387 18.2244 18.5839 18.0811 17.9571 18.0811C17.2532 18.0811 16.4568 18.2753 15.568 18.6637L15.1749 17.7828C15.5911 17.5794 16.0458 17.4199 16.539 17.3043C17.0374 17.1887 17.5358 17.1309 18.0342 17.1309C19.0412 17.1309 19.7862 17.332 20.2692 17.7343C20.7573 18.1366 21.0014 18.7816 21.0014 19.6693V24.8571H20.0534ZM17.1633 24.0457C17.9597 24.0457 18.5839 23.8492 19.0361 23.4561C19.4934 23.0631 19.722 22.5129 19.722 21.8054V21.1189L18.4427 21.1674C17.4253 21.1998 16.6906 21.3432 16.2385 21.5975C15.7915 21.8471 15.568 22.2379 15.568 22.7695C15.568 23.1856 15.7067 23.5024 15.9842 23.7196C16.2667 23.937 16.6598 24.0457 17.1633 24.0457ZM22.3038 17.2557H23.6757L25.5254 21.5904C25.9312 22.5799 26.1831 23.2943 26.2806 23.7336H26.3422C26.4091 23.4977 26.5479 23.0954 26.7583 22.5269C26.9742 21.9534 27.6729 20.1964 28.8547 17.2557H30.2266L26.5965 25.9114C26.237 26.7668 25.8157 27.3724 25.3327 27.7285C24.8548 28.0892 24.2665 28.2695 23.5678 28.2695C23.1774 28.2695 22.792 28.2302 22.4116 28.1515V27.229C22.6942 27.2847 23.0103 27.3123 23.3598 27.3123C24.2382 27.3123 24.8651 26.8684 25.2402 25.9806L25.7102 24.8988L22.3038 17.2557Z"
    fill="black" />
  <path
    d="M43.6452 44.9419C43.6452 46.6156 43.1391 47.8964 42.1269 48.7841C41.1198 49.6674 39.6684 50.1089 37.7726 50.1089H34.6511V39.9691H38.1038C39.856 39.9691 41.2176 40.4059 42.1885 41.2798C43.1597 42.1538 43.6452 43.3744 43.6452 44.9419ZM42.258 44.9836C42.258 43.661 41.888 42.6647 41.1481 41.9942C40.4135 41.3238 39.319 40.9887 37.8651 40.9887H35.9614V49.0893H37.5567C39.1186 49.0893 40.2927 48.7449 41.0788 48.056C41.865 47.3623 42.258 46.3383 42.258 44.9836ZM51.1671 50.1089L50.9128 49.027H50.8512C50.4299 49.5032 50.0085 49.8268 49.5872 49.998C49.1711 50.1643 48.6496 50.2476 48.0226 50.2476C47.1852 50.2476 46.5275 50.0534 46.0496 49.665C45.577 49.2765 45.3407 48.724 45.3407 48.0074C45.3407 46.4722 46.7049 45.6677 49.4331 45.5937L50.8666 45.5521V45.0806C50.8666 44.484 50.7227 44.0449 50.4349 43.7628C50.1523 43.4761 49.6977 43.3327 49.0709 43.3327C48.367 43.3327 47.5706 43.527 46.6817 43.9153L46.2886 43.0346C46.7049 42.831 47.1596 42.6716 47.6528 42.556C48.1511 42.4404 48.6496 42.3826 49.1479 42.3826C50.155 42.3826 50.9001 42.5837 51.383 42.9861C51.871 43.3884 52.115 44.0333 52.115 44.921V50.1089H51.1671ZM48.2771 49.2975C49.0733 49.2975 49.6977 49.101 50.1499 48.7078C50.6072 48.3148 50.8359 47.7646 50.8359 47.0572V46.3706L49.5565 46.4192C48.5391 46.4515 47.8043 46.5949 47.3522 46.8492C46.9053 47.0988 46.6817 47.4896 46.6817 48.0213C46.6817 48.4373 46.8204 48.7541 47.0979 48.9714C47.3805 49.1888 47.7736 49.2975 48.2771 49.2975ZM58.612 42.3688C58.9871 42.3688 59.3236 42.3964 59.6217 42.4521L59.4444 43.5201C59.0949 43.4507 58.7867 43.416 58.5195 43.416C57.8362 43.416 57.2504 43.6657 56.7624 44.165C56.2795 44.6644 56.0379 45.2864 56.0379 46.0307V50.1089H54.7586V42.5075H55.8143L55.9608 43.9153H56.0226C56.3358 43.4207 56.7136 43.0392 57.1555 42.7711C57.5972 42.5028 58.0828 42.3688 58.612 42.3688ZM63.9298 49.2975C64.1558 49.2975 64.3742 49.2834 64.5848 49.2558C64.7955 49.2235 64.9626 49.1911 65.0858 49.1588V50.0394C64.9472 50.0996 64.7416 50.1481 64.4693 50.1852C64.2021 50.2268 63.9607 50.2476 63.7448 50.2476C62.111 50.2476 61.2941 49.473 61.2941 47.9242V43.4022H60.0841V42.8472L61.2941 42.3688L61.8334 40.7458H62.5735V42.5075H65.0242V43.4022H62.5735V47.8757C62.5735 48.3334 62.6941 48.6847 62.9357 48.9297C63.177 49.1749 63.5085 49.2975 63.9298 49.2975ZM72.2301 48.0351C72.2301 48.7425 71.9372 49.2882 71.3515 49.6719C70.766 50.0556 69.9439 50.2476 68.8853 50.2476C67.7653 50.2476 66.8919 50.0881 66.2649 49.769V48.7009C66.6709 48.8859 67.105 49.0315 67.5675 49.1379C68.0351 49.2442 68.4845 49.2975 68.9162 49.2975C69.5841 49.2975 70.098 49.2026 70.4575 49.013C70.8172 48.8189 70.997 48.5253 70.997 48.1321C70.997 47.8362 70.8532 47.5843 70.5656 47.3762C70.2828 47.1635 69.7279 46.9139 68.9008 46.6273C68.1147 46.3637 67.5546 46.1347 67.2207 45.9406C66.8919 45.7417 66.6453 45.5176 66.4809 45.2678C66.3215 45.0181 66.2419 44.72 66.2419 44.3732C66.2419 43.7535 66.5219 43.2656 67.082 42.9098C67.6421 42.5491 68.41 42.3688 69.3864 42.3688C70.2957 42.3688 71.1847 42.5351 72.053 42.8681L71.5981 43.8044C70.7504 43.49 69.9822 43.3327 69.2939 43.3327C68.6875 43.3327 68.2302 43.4183 67.922 43.5894C67.6138 43.7604 67.4597 43.9964 67.4597 44.2968C67.4597 44.5002 67.516 44.6736 67.6291 44.817C67.7473 44.9603 67.935 45.0968 68.1917 45.2262C68.4486 45.3556 68.9418 45.5428 69.6714 45.7881C70.6734 46.1163 71.3491 46.447 71.6983 46.7798C72.053 47.1126 72.2301 47.5312 72.2301 48.0351Z"
    fill="black" />
</svg>
