<svg width="812" height="724" viewBox="0 0 812 724" fill="none" xmlns="http://www.w3.org/2000/svg">
<g id="PlayerIcon">
<g id="Background">
<path id="Ellipse 18" d="M773.858 353.954C773.723 543.066 569.739 640.108 346.446 639.949C245.209 639.877 140.023 572.27 109.412 561.786C78.8013 551.301 -9.22241 417.33 2.23424 323.126C13.6909 228.922 52.1527 193.095 100.576 167.047C149 141 317.303 -9.23926 455.112 1.26767C571.569 1.35056 685.308 13.542 759.036 80.3264C868.084 179.104 773.922 263.472 773.858 353.954Z" fill="white"/>
<g id="Person">
<path id="Vector" d="M315.616 307.71C318.944 309.568 323.14 310.399 327.301 310.022C331.461 309.646 332.396 308.895 334.999 306.5C335.573 305.97 331 309.331 331 309.331L334.5 310.022L366.499 313L395.022 310.065L382.81 290.923L331.836 288.103C327.981 286.865 323.612 286.784 319.674 287.876C315.737 288.968 312.547 291.146 310.795 293.939C309.336 296.293 309.019 298.938 309.895 301.441C310.772 303.943 312.789 306.154 315.616 307.71Z" fill="#FFB6B6"/>
<path id="Vector_2" d="M574.449 454.773L686.012 442.373C709.31 448.562 714.416 467.905 713.189 491.827C713.189 491.827 718.899 505.2 715.135 509.46C711.371 513.72 709.039 514.026 712.947 520.104C716.856 526.182 707.107 538.226 708.893 539.2C710.678 540.174 715.753 546.098 715.753 546.098L716.925 599.611C716.925 599.611 731.053 690.968 729.171 693.098C727.289 695.228 724.506 693.71 727.964 697.964C731.423 702.218 733.305 700.088 731.423 702.218C729.787 704.231 728.291 706.313 726.943 708.455L698.747 712.155C698.747 712.155 694.37 703.314 694.145 702.402C693.92 701.49 690.236 696.325 690.011 695.413C689.786 694.501 691.449 692.618 691.449 692.618C691.704 690.671 691.715 688.704 691.483 686.746C691.033 684.922 680.693 613.782 680.693 613.782L644.182 524.421L632.428 618.233C632.428 618.233 651.792 696.662 649.91 698.792C648.028 700.922 647.803 700.01 649.87 703.505C651.937 707 656.376 705.476 653.553 708.671C650.73 711.866 648.438 707.459 650.73 711.866L653.022 716.273L618.133 721.256C618.133 721.256 611.57 714.181 613.227 711.139C614.884 708.097 614.928 708.862 610.977 704.758C607.026 700.654 605.635 699.895 606.576 698.83C607.517 697.765 606.32 692.915 606.32 692.915L590.607 604.891C590.607 604.891 569.031 512.629 568.356 509.893C568.096 508.474 567.418 507.113 566.374 505.917L565.457 502.204L566.676 488.458L574.449 454.773Z" fill="#2F2E41"/>
<path id="Vector_3" d="M372.861 290.31L366.499 313L439.499 318L506.499 318L632.801 282.151C625.02 280.171 616.778 279.336 608.551 279.693C600.324 280.05 639.471 283.629 632.067 286.268L494.175 286.635L372.861 290.31Z" fill="#E6E6E6"/>
<path id="Vector_4" d="M570.783 465.319C611.287 469.093 579.559 460.468 614.811 451.837C630.725 447.941 689.066 458.426 703.84 451.837C697.451 405.96 661.344 347.866 674.914 292.796C675.689 289.678 674.881 286.462 672.642 283.746C670.403 281.031 666.885 279.002 662.745 278.039L619.017 268.892L605.554 258.064L570.783 264.499C570.783 264.499 556.263 265.957 552.5 264.499C548.736 263.041 531.637 265.102 509 285.5C486.362 305.898 505 286 505 286C503.845 287.976 509.772 310.166 510.273 312.282C540.562 349.757 595.822 405.72 570.783 465.319Z" fill="url(#paint0_linear_1158_14)"/>
<path id="Vector_5" d="M627.313 439.156C631.489 439.426 635.643 438.49 638.88 436.548C642.117 434.607 644.178 431.815 644.618 428.776C644.713 428.104 646.569 428.174 646.5 427.5L667.907 416.264L659.172 402.131L638.5 411C638.5 411 639.687 416.138 633.5 418.819C627.313 421.5 630.5 424 630.5 424C631.73 422.621 622.474 414.563 614.677 418.819C612.154 421.278 612.559 426.363 613.129 429.406C613.626 431.963 615.3 434.321 617.878 436.093C620.455 437.865 623.783 438.945 627.313 439.156Z" fill="#FFB6B6"/>
<path id="Vector_6" d="M638.773 411.112L646.933 427.182L721 390.5L711.5 357L706.5 320C703.846 310.861 699.729 299.535 691.359 292.463C682.989 285.391 659 278 659 278L684.935 387.84L638.773 411.112Z" fill="#6265D8"/>
<path id="Vector_7" d="M574.617 253.875C598.053 253.875 617.052 240.023 617.052 222.937C617.052 205.85 598.053 191.999 574.617 191.999C551.182 191.999 532.183 205.85 532.183 222.937C532.183 240.023 551.182 253.875 574.617 253.875Z" fill="#FFB6B6"/>
<path id="Vector_8" d="M547.58 204.78C549.222 204.79 550.856 204.946 552.446 205.246C555.58 205.795 558.762 206.184 561.97 206.41C571.794 207.084 581.024 210.139 588.188 215.086C595.351 220.033 600.033 226.588 601.488 233.703C603.953 232.135 609.564 229.252 614.163 231.932C614.233 231.974 614.274 231.996 614.436 231.94C617.49 230.884 622.912 217.882 623.076 206.434C623.162 200.358 621.85 192.599 615.11 190.142L614.755 190.012L614.662 189.731C614.212 188.364 609.18 186.031 600.436 184.215C584.544 180.915 560.856 174.486 547.517 183.947C546.508 187.136 543.224 193.962 539.906 194.736C536.233 195.592 533.06 196.331 532.56 199.616C532.142 204.292 532.173 208.983 532.651 213.655C533.896 210.796 536.339 208.294 539.637 206.5C541.982 205.349 544.754 204.749 547.58 204.78V204.78Z" fill="#2F2E41"/>
</g>
</g>
<path id="Rectangle 47" d="M638.5 411C638.5 408.5 716 371.5 716 371.5L720 385C720 385 723 390.5 720 392.5C717 394.5 646.5 427.5 646.5 427.5C646.5 427.5 638.5 413.5 638.5 411Z" fill="#FFB6B6"/>
<path id="Rectangle 50" d="M708 330.5L717 374.786L700.703 380.194C701.636 383.638 688.139 389.002 685.957 386.518C683.775 384.034 677.899 357.905 675.5 347L708 330.5Z" fill="#FFB6B6"/>
<path id="Rectangle 48" d="M369.584 291.009C370.653 288.748 505 286.5 505 286.5L511.5 316.5C512.5 321 467.326 317.622 461.5 318.5C455.674 319.378 366.558 313.861 366.5 313C366.5 313 368.515 293.269 369.584 291.009Z" fill="#FFB6B6"/>
<path id="Rectangle 49" d="M470 287.008L508.247 286.022C528.47 285.037 513.962 317.064 513.962 317.064C513.211 320.634 494.418 318.204 473.517 318.049L470 287.008Z" fill="#6265D8"/>
<g id="Arrow">
<g id="Group">
<path id="Vector_9" d="M200.891 258.401L203.55 251.136C204.679 250.888 205.523 249.98 205.607 248.812C205.692 247.657 205 246.646 203.91 246.226L202.327 238.642C202.247 238.254 201.919 237.968 201.524 237.94L192.455 237.28C192.137 237.257 191.832 237.405 191.655 237.669L186.83 244.848L179.532 244.317C179.004 243.596 178.195 243.08 177.281 243.014L156.758 241.522C155.935 241.462 155.135 241.728 154.506 242.271C153.945 242.756 153.597 243.413 153.485 244.134L142.436 243.329C141.947 243.294 141.523 243.66 141.488 244.149C141.47 244.392 141.552 244.62 141.701 244.792C141.849 244.963 142.063 245.078 142.307 245.096L153.355 245.9C153.363 246.63 153.613 247.329 154.098 247.89C154.641 248.519 155.393 248.897 156.217 248.957L176.739 250.451C177.563 250.511 178.362 250.245 178.99 249.702C179.066 249.637 179.125 249.56 179.193 249.489L186.454 250.017L190.19 257.819C190.225 257.891 190.268 257.957 190.319 258.016C190.47 258.192 190.687 258.303 190.925 258.32L199.994 258.98C200.388 259.009 200.755 258.773 200.891 258.401ZM192.839 239.084L200.729 239.658L202.043 245.955L188.866 244.996L192.839 239.084ZM156.345 247.19C155.642 247.139 155.065 246.471 155.116 245.768L155.207 244.519C155.233 244.167 155.395 243.844 155.665 243.611C155.935 243.378 156.277 243.264 156.629 243.29L158.884 243.454L158.6 247.354L156.345 247.19ZM160.367 247.483L160.651 243.582L163.169 243.765L162.886 247.666L160.367 247.483ZM164.653 247.794L164.937 243.894L167.704 244.096L167.42 247.996L164.653 247.794ZM169.188 248.124L169.471 244.223L172.238 244.424L171.955 248.325L169.188 248.124ZM176.868 248.683L173.723 248.454L174.006 244.553L177.151 244.782C177.28 244.791 177.401 244.825 177.519 244.87L178.015 245.634C178.254 246.001 178.364 246.414 178.335 246.829L178.335 246.83C178.305 247.245 178.135 247.637 177.847 247.965L177.244 248.65C177.122 248.677 176.996 248.692 176.868 248.683ZM187.095 248.288L180.025 247.773C180.034 247.709 180.053 247.648 180.058 247.582L180.149 246.332C180.154 246.267 180.142 246.204 180.142 246.139L187.21 246.653C187.212 246.653 187.214 246.653 187.215 246.653L203.042 247.805C203.467 247.864 203.88 248.159 203.84 248.685C203.802 249.215 203.348 249.446 202.968 249.442L187.095 248.288ZM191.566 256.59L188.49 250.165L201.667 251.124L199.456 257.164L191.566 256.59Z" fill="black"/>
</g>
</g>
<g id="Group_2">
<g id="Group_3">
<path id="Vector_10" d="M635.543 438.758L638.567 437.333C638.937 437.667 639.446 437.677 639.844 437.322C640.238 436.97 640.386 436.381 640.241 435.84L642.277 432.745C642.382 432.587 642.39 432.372 642.297 432.217L640.179 428.656C640.105 428.531 639.979 428.467 639.848 428.49L636.295 429.088L634.591 426.222C634.687 425.789 634.646 425.32 634.432 424.961L629.638 416.903C629.446 416.579 629.155 416.373 628.818 416.321C628.518 416.275 628.217 416.364 627.955 416.561L625.375 412.222C625.261 412.03 625.034 411.995 624.867 412.144C624.784 412.218 624.732 412.324 624.715 412.435C624.698 412.547 624.716 412.664 624.773 412.759L627.353 417.098C627.12 417.342 626.959 417.666 626.903 418.031C626.84 418.439 626.912 418.841 627.104 419.165L631.897 427.224C632.089 427.547 632.381 427.754 632.717 427.805C632.757 427.812 632.797 427.808 632.838 427.81L634.534 430.661L632.98 434.621C632.966 434.658 632.956 434.695 632.95 434.734C632.933 434.848 632.952 434.964 633.008 435.058L635.126 438.619C635.218 438.774 635.388 438.831 635.543 438.758ZM639.696 429.394L641.539 432.493L639.849 435.062L636.771 429.888L639.696 429.394ZM627.706 418.627C627.542 418.351 627.609 417.917 627.848 417.703L628.274 417.323C628.394 417.216 628.54 417.169 628.684 417.191C628.829 417.214 628.953 417.302 629.036 417.44L629.562 418.326L628.233 419.513L627.706 418.627ZM628.646 420.206L629.975 419.02L630.563 420.008L629.234 421.195L628.646 420.206ZM629.647 421.889L630.976 420.702L631.622 421.789L630.293 422.976L629.647 421.889ZM630.706 423.67L632.035 422.483L632.682 423.57L631.352 424.756L630.706 423.67ZM632.5 426.686L631.765 425.451L633.094 424.263L633.829 425.499C633.859 425.549 633.88 425.605 633.895 425.663L633.777 426.099C633.72 426.309 633.615 426.486 633.474 426.613L633.474 426.613C633.332 426.739 633.162 426.807 632.982 426.809L632.607 426.814C632.567 426.777 632.53 426.736 632.5 426.686ZM635.256 430.325L633.604 427.548C633.627 427.53 633.652 427.517 633.674 427.497L634.1 427.117C634.122 427.097 634.14 427.072 634.161 427.05L635.812 429.826C635.812 429.826 635.812 429.827 635.813 429.828L639.509 436.043C639.6 436.219 639.611 436.468 639.431 436.628C639.25 436.79 639.059 436.699 638.963 436.557L635.256 430.325ZM633.73 434.721L635.009 431.46L638.087 436.635L635.573 437.819L633.73 434.721Z" fill="#8F9299"/>
</g>
</g>
</g>
<defs>
<linearGradient id="paint0_linear_1158_14" x1="604.235" y1="258.064" x2="604.235" y2="466.23" gradientUnits="userSpaceOnUse">
<stop stop-color="#6265D8"/>
<stop offset="1" stop-color="#6265D8"/>
</linearGradient>
</defs>
</svg>
