<svg width="38" height="38" viewBox="0 0 38 38" fill="none" xmlns="http://www.w3.org/2000/svg">
<g opacity="0.4">
<mask id="mask0_1106_2" style="mask-type:alpha" maskUnits="userSpaceOnUse" x="0" y="0" width="38" height="38">
<rect width="38" height="38" fill="white"/>
</mask>
<g mask="url(#mask0_1106_2)">
<path d="M32.0625 28.5V31.6667C32.0625 32.3225 32.5942 32.8542 33.25 32.8542C33.9059 32.8542 34.4375 32.3225 34.4375 31.6667V28.5C34.4375 24.3463 31.0704 20.9792 26.9167 20.9792C26.7446 20.9792 26.6671 21.2012 26.7972 21.3138C27.4963 21.9189 28.1062 22.6242 28.6046 23.4075C28.7254 23.5974 28.9014 23.7455 29.105 23.8413C30.8527 24.6637 32.0625 26.4405 32.0625 28.5Z" fill="black"/>
<path fill-rule="evenodd" clip-rule="evenodd" d="M5.9375 28.5V31.6667C5.9375 32.3225 5.40584 32.8542 4.75 32.8542C4.09416 32.8542 3.5625 32.3225 3.5625 31.6667V28.5C3.5625 24.3463 6.92969 20.9792 11.0833 20.9792H20.5833C24.737 20.9792 28.1042 24.3463 28.1042 28.5V31.6667C28.1042 32.3225 27.5725 32.8542 26.9167 32.8542C26.2608 32.8542 25.7292 32.3225 25.7292 31.6667V28.5C25.7292 25.658 23.4253 23.3542 20.5833 23.3542H11.0833C8.24137 23.3542 5.9375 25.658 5.9375 28.5Z" fill="black"/>
<path d="M26.1249 11.0833C26.1249 9.59666 25.3053 8.30142 24.0933 7.62477C23.8791 7.50515 23.6978 7.33101 23.5857 7.11269C23.186 6.33391 22.6725 5.62322 22.067 5.0026C21.9756 4.90893 22.0357 4.75 22.1666 4.75C25.6644 4.75 28.4999 7.58553 28.4999 11.0833C28.4999 14.5811 25.6644 17.4167 22.1666 17.4167C22.0357 17.4167 21.9756 17.2577 22.067 17.1641C22.6725 16.5434 23.186 15.8328 23.5857 15.054C23.6978 14.8357 23.8791 14.6615 24.0933 14.5419C25.3053 13.8653 26.1249 12.57 26.1249 11.0833Z" fill="black"/>
<path fill-rule="evenodd" clip-rule="evenodd" d="M15.8333 4.75C19.3311 4.75 22.1667 7.58553 22.1667 11.0833C22.1667 14.5811 19.3311 17.4167 15.8333 17.4167C12.3355 17.4167 9.5 14.5811 9.5 11.0833C9.5 7.58553 12.3355 4.75 15.8333 4.75ZM15.8333 7.125C18.0195 7.125 19.7917 8.89721 19.7917 11.0833C19.7917 13.2695 18.0195 15.0417 15.8333 15.0417C13.6472 15.0417 11.875 13.2695 11.875 11.0833C11.875 8.89721 13.6472 7.125 15.8333 7.125Z" fill="black"/>
</g>
</g>
</svg>
