<svg width="39" height="39" viewBox="0 0 39 39" fill="none" xmlns="http://www.w3.org/2000/svg">
<g clip-path="url(#clip0_1104_433)">
<path d="M37.0115 37.2844H35.3494V13.1508C35.3494 12.0275 34.4355 11.1136 33.3123 11.1136H29.5972C28.4739 11.1136 27.56 12.0275 27.56 13.1508V37.2844H23.3396V24.0852C23.3396 22.9619 22.4258 22.048 21.3025 22.048H17.5874C16.4641 22.048 15.5502 22.9619 15.5502 24.0852V37.2844H11.3298V30.4486C11.3298 29.3253 10.4159 28.4114 9.29266 28.4114H5.57749C4.45418 28.4114 3.54033 29.3254 3.54033 30.4486V37.2844H1.78857C1.37003 37.2844 1.03076 37.6236 1.03076 38.0422C1.03076 38.4607 1.37003 38.8 1.78857 38.8H37.0115C37.4301 38.8 37.7694 38.4607 37.7694 38.0422C37.7694 37.6236 37.4301 37.2844 37.0115 37.2844ZM9.81404 37.2844H5.05588V30.4486C5.05588 30.161 5.28982 29.9271 5.57741 29.9271H9.29251C9.5801 29.9271 9.81404 30.161 9.81404 30.4486V37.2844ZM21.8239 37.2844H17.0658V24.0852C17.0658 23.7976 17.2997 23.5636 17.5873 23.5636H21.3024C21.5899 23.5636 21.8239 23.7976 21.8239 24.0852V37.2844ZM33.8338 37.2844H29.0757V13.1508C29.0757 12.8632 29.3096 12.6292 29.5972 12.6292H33.3123C33.5999 12.6292 33.8338 12.8632 33.8338 13.1508V37.2844Z" fill="#8F9299"/>
<path d="M35.3477 0.796916C35.3583 0.590109 35.2855 0.379816 35.1276 0.221887C34.9697 0.0639594 34.7594 -0.00886641 34.5526 0.00181875C34.5404 0.00128828 34.5283 0 34.5159 0H29.9311C29.5126 0 29.1733 0.339273 29.1733 0.757812C29.1733 1.17635 29.5126 1.51562 29.9311 1.51562H32.7621L25.2706 9.00721L22.4454 6.18208C22.3034 6.03999 22.1106 5.96012 21.9096 5.96012C21.7086 5.96012 21.5158 6.03999 21.3737 6.18208L7.75063 19.8053C7.45471 20.1012 7.45471 20.5811 7.75063 20.8771C7.89863 21.0249 8.09256 21.0989 8.28648 21.0989C8.4804 21.0989 8.6744 21.0249 8.82233 20.8769L21.9096 7.78955L24.7347 10.6147C25.0306 10.9106 25.5105 10.9106 25.8065 10.6147L33.8338 2.5874V5.14956C33.8338 5.5681 34.1731 5.90738 34.5917 5.90738C35.0102 5.90738 35.3495 5.5681 35.3495 5.14956V0.833594C35.3495 0.821241 35.3482 0.809192 35.3477 0.796916Z" fill="#8F9299"/>
<path d="M5.73218 23.743C6.15071 23.743 6.48999 23.4037 6.48999 22.9852C6.48999 22.5667 6.15071 22.2274 5.73218 22.2274C5.31365 22.2274 4.97437 22.5667 4.97437 22.9852C4.97437 23.4037 5.31365 23.743 5.73218 23.743Z" fill="#8F9299"/>
</g>
<defs>
<clipPath id="clip0_1104_433">
<rect width="38.8" height="38.8" fill="white"/>
</clipPath>
</defs>
</svg>
