<svg width="39" height="39" viewBox="0 0 39 39" fill="none" xmlns="http://www.w3.org/2000/svg">
  <path
    d="M16.7906 0.135356C14.0554 0.552831 11.4401 1.63505 9.18389 3.29689C8.27804 3.96163 6.25217 6.02371 5.61122 6.93571C4.54273 8.4354 3.61112 10.3529 3.15819 11.9209C3.07283 12.2276 2.97863 12.5005 2.94441 12.5431C2.91865 12.5772 2.51725 11.9124 2.05547 11.0775C1.60255 10.2337 1.12386 9.46701 1.00428 9.36466C0.722453 9.15151 0.43178 9.14308 0.209546 9.36466C-0.174942 9.74801 -0.149566 9.80782 1.32072 12.5434C2.08124 13.958 2.7737 15.1683 2.84214 15.2193C2.91904 15.2791 3.10705 15.3301 3.2693 15.3301C3.52576 15.3301 3.68801 15.1936 4.93606 13.8982C7.83357 10.9157 7.78243 10.9751 7.55135 10.5404C7.41447 10.2763 7.3122 10.2165 6.95309 10.2165C6.66242 10.2165 6.55976 10.3016 5.51702 11.3754C4.90146 12.006 4.39739 12.4917 4.39739 12.4407C4.39739 12.2532 5.02142 10.6596 5.38015 9.92666C6.46556 7.71967 8.26919 5.59741 10.3031 4.14028C13.1407 2.11194 16.9955 1.05541 20.4398 1.34523C21.7474 1.45602 23.192 1.75427 24.3031 2.12919C25.4055 2.51255 27.3287 3.49279 28.2349 4.14028C30.9444 6.08313 33.0552 8.9721 33.9273 11.9209C34.1068 12.5174 34.3206 13.0713 34.4229 13.1737C34.8331 13.6253 35.5594 13.2588 35.5425 12.6197C35.534 12.4407 35.3887 11.8783 35.2091 11.3669C33.7819 7.18298 30.7479 3.70593 26.8246 1.75427C25.1236 0.910501 23.4911 0.39067 21.6536 0.126537C20.4998 -0.0436726 17.9187 -0.0436716 16.7906 0.135356Z"
    fill="#8F9299" />
  <path
    d="M17.5426 6.83344C16.4399 7.20836 15.5852 7.98389 15.0727 9.0661C14.1753 10.958 15.0727 13.2757 17.0812 14.2644C17.6537 14.5458 17.8164 14.5884 18.5173 14.6225C19.184 14.6566 19.4062 14.6393 19.8676 14.4776C21.3548 13.9834 22.4487 12.7134 22.7136 11.1968C22.9189 10.0207 22.4744 8.79354 21.5171 7.83937C20.3717 6.72265 18.9445 6.35616 17.5426 6.83344ZM20.0126 8.23959C20.8331 8.6655 21.3202 9.42416 21.3886 10.3872C21.4655 11.4694 21.0811 12.3473 20.3202 12.8586C19.8246 13.1826 19.3801 13.3018 18.7049 13.3018C17.628 13.3102 16.7563 12.782 16.303 11.8615C16.0981 11.4441 16.0723 11.2735 16.0723 10.6513C16.0808 9.46671 16.5426 8.70843 17.5169 8.23959C17.9955 8.00958 18.0894 7.99232 18.8418 8.02644C19.4654 8.04369 19.7392 8.09468 20.0126 8.23959Z"
    fill="#8F9299" />
  <path
    d="M17.5684 15.5086C16.4657 15.7387 15.6026 16.0883 14.6967 16.676C12.389 18.1672 10.9018 20.7154 10.748 23.4422C10.688 24.465 10.7649 24.7717 11.1413 25.0189C11.3551 25.1639 11.7823 25.1723 18.8423 25.1723C25.9022 25.1723 26.3294 25.1639 26.5432 25.0189C26.9107 24.7717 26.9961 24.4566 26.9365 23.4851C26.7735 20.707 25.3374 18.227 23.0213 16.7016C22.0812 16.0795 21.2349 15.7471 20.0469 15.5086C18.9872 15.2955 18.6196 15.2955 17.5684 15.5086ZM20.4317 16.9489C21.7994 17.2897 23.0897 18.1078 23.9702 19.19C24.5 19.8291 25.184 21.2095 25.3805 22.0107C25.4574 22.3347 25.5427 22.8798 25.5685 23.2294L25.6196 23.8516H18.8419H12.0641L12.1152 23.1443C12.2521 21.295 13.2433 19.3863 14.6794 18.227C15.3376 17.6903 16.3719 17.1701 17.2178 16.9489C18.1067 16.7273 19.5255 16.7189 20.4317 16.9489Z"
    fill="#8F9299" />
  <path
    d="M34.6366 17.0173C34.5597 17.0514 33.6365 17.8438 32.5938 18.7815C29.9101 21.1847 30.1235 20.9631 30.1235 21.3637C30.1235 21.7728 30.3457 21.9775 30.7729 21.9775C31.0036 21.9775 31.26 21.79 32.4396 20.7247C34.0122 19.3017 33.978 19.2929 33.4397 20.8953C32.6449 23.2644 31.3285 25.3181 29.4225 27.1333C28.2772 28.2323 27.209 28.991 25.7645 29.724C20.79 32.2465 14.867 31.9057 10.2516 28.8461C8.65324 27.7807 7.46518 26.656 6.36246 25.1732C5.13172 23.5113 4.50769 22.2244 3.91789 20.1539C3.76409 19.5831 3.55031 19.3358 3.23426 19.3358C2.92667 19.3358 2.7129 19.4723 2.55064 19.779C2.42261 20.0262 2.43107 20.0772 2.76442 21.1169C3.38844 23.0256 4.47386 25.0114 5.73882 26.5793C6.34555 27.3292 7.73009 28.6755 8.45677 29.2294C10.508 30.7889 12.9011 31.8884 15.4398 32.4251C16.8759 32.7234 19.5939 32.8085 21.0638 32.5957C22.8928 32.3231 24.5338 31.8374 26.0721 31.0876C30.2261 29.0765 33.3286 25.5312 34.7731 21.1253C35.1064 20.1113 35.166 20.0005 35.2345 20.188C35.5936 21.0827 36.4825 22.8979 36.6275 23.0172C37.055 23.3748 37.6787 23.0938 37.6787 22.5483C37.6702 22.2416 35.5078 17.4182 35.2683 17.1967C35.0895 17.0173 34.8246 16.949 34.6366 17.0173Z"
    fill="#8F9299" />
</svg>
