<svg width="53" height="39" viewBox="0 0 53 39" fill="#8F9299" xmlns="http://www.w3.org/2000/svg">
<path d="M38.7135 10.957L35.7981 5.70934C36.2251 4.92068 36.1206 3.96425 35.4777 3.32204C34.8423 2.68603 33.8983 2.57945 33.0979 3.00644L27.8425 0.086962C27.5737 -0.0629313 27.2395 -0.015488 27.0229 0.201789L22.033 5.19159C21.8583 5.36623 21.7903 5.62064 21.8556 5.85854L23.622 12.3342L19.6064 16.349C18.9154 16.2933 18.2017 16.5065 17.699 17.0098L6.40862 28.3006C5.95549 28.7537 5.70589 29.3581 5.70589 30.003C5.70589 30.5786 5.91492 31.1162 6.28073 31.5481L0.201639 37.6263C-0.0672131 37.8951 -0.0672131 38.3297 0.201639 38.5985C0.335722 38.7326 0.51106 38.8 0.687086 38.8C0.863112 38.8 1.03914 38.7326 1.17322 38.5985L7.25231 32.5203C7.68412 32.8861 8.22183 33.0944 8.79735 33.0944C9.44163 33.0944 10.0453 32.8448 10.4992 32.3917L21.7903 21.1016C22.2434 20.6485 22.493 20.0441 22.493 19.3998C22.493 19.3228 22.4779 19.2486 22.471 19.1729L26.4653 15.1781L32.9418 16.9445C33.0016 16.9603 33.0621 16.9685 33.1226 16.9685C33.3028 16.9685 33.4781 16.8977 33.6088 16.7671L38.5987 11.7773C38.8153 11.5607 38.8627 11.2258 38.7135 10.957ZM23.2872 5.88192L27.628 1.5412L31.9915 3.96494L24.7421 11.2141L23.2872 5.88192ZM9.52689 31.4195C9.13977 31.8066 8.45492 31.8066 8.06849 31.4195L7.38089 30.7319C7.18767 30.5387 7.08041 30.2795 7.08041 30.003C7.08041 29.726 7.18699 29.4674 7.38089 29.2735L8.62132 28.0331L10.7673 30.1791L9.52689 31.4195ZM11.7396 29.2068L9.59359 27.0609L10.9791 25.6754L13.1251 27.8213L11.7396 29.2068ZM14.0974 26.8491L11.9514 24.7032L13.4744 23.1808L15.6204 25.3268L14.0974 26.8491ZM16.592 24.3539L14.446 22.2079L15.9683 20.6856L18.1144 22.8316L16.592 24.3539ZM20.818 20.1287L19.0873 21.8593L16.9406 19.7134L18.6713 17.9827C18.7421 17.9119 18.8233 17.8576 18.9092 17.8115L19.6099 17.9078C19.9468 17.9538 20.2452 18.0989 20.4735 18.3265L20.4742 18.3272C20.7025 18.5555 20.8469 18.8539 20.893 19.1901L20.9892 19.8914C20.9431 19.9767 20.8881 20.0585 20.818 20.1287ZM25.7756 13.9239L21.8858 17.8136C21.8528 17.7757 21.8267 17.7338 21.7903 17.6974L21.1027 17.0098C21.0669 16.974 21.0236 16.9486 20.9858 16.9156L24.8742 13.0266C24.8749 13.0259 24.8762 13.0252 24.8769 13.0245L33.5847 4.31767C33.835 4.09764 34.2173 4.00482 34.5061 4.29498C34.7983 4.58651 34.7034 4.97018 34.5082 5.19159L25.7756 13.9239ZM32.9184 15.5122L27.5854 14.058L34.8354 6.80878L37.2592 11.1722L32.9184 15.5122Z"/>
<path d="M45.7135 10.957L42.7981 5.70934C43.2251 4.92068 43.1206 3.96425 42.4777 3.32204C41.8423 2.68603 40.8983 2.57945 40.0979 3.00644L34.8425 0.086962C34.5737 -0.0629313 34.2395 -0.015488 34.0229 0.201789L29.033 5.19159C28.8583 5.36623 28.7903 5.62064 28.8556 5.85854L30.622 12.3342L26.6064 16.349C25.9154 16.2933 25.2017 16.5065 24.699 17.0098L13.4086 28.3006C12.9555 28.7537 12.7059 29.3581 12.7059 30.003C12.7059 30.5786 12.9149 31.1162 13.2807 31.5481L7.20164 37.6263C6.93279 37.8951 6.93279 38.3297 7.20164 38.5985C7.33572 38.7326 7.51106 38.8 7.68709 38.8C7.86311 38.8 8.03914 38.7326 8.17322 38.5985L14.2523 32.5203C14.6841 32.8861 15.2218 33.0944 15.7973 33.0944C16.4416 33.0944 17.0453 32.8448 17.4992 32.3917L28.7903 21.1016C29.2434 20.6485 29.493 20.0441 29.493 19.3998C29.493 19.3228 29.4779 19.2486 29.471 19.1729L33.4653 15.1781L39.9418 16.9445C40.0016 16.9603 40.0621 16.9685 40.1226 16.9685C40.3028 16.9685 40.4781 16.8977 40.6088 16.7671L45.5987 11.7773C45.8153 11.5607 45.8627 11.2258 45.7135 10.957ZM30.2872 5.88192L34.628 1.5412L38.9915 3.96494L31.7421 11.2141L30.2872 5.88192ZM16.5269 31.4195C16.1398 31.8066 15.4549 31.8066 15.0685 31.4195L14.3809 30.7319C14.1877 30.5387 14.0804 30.2795 14.0804 30.003C14.0804 29.726 14.187 29.4674 14.3809 29.2735L15.6213 28.0331L17.7673 30.1791L16.5269 31.4195ZM18.7396 29.2068L16.5936 27.0609L17.9791 25.6754L20.1251 27.8213L18.7396 29.2068ZM21.0974 26.8491L18.9514 24.7032L20.4744 23.1808L22.6204 25.3268L21.0974 26.8491ZM23.592 24.3539L21.446 22.2079L22.9683 20.6856L25.1144 22.8316L23.592 24.3539ZM27.818 20.1287L26.0873 21.8593L23.9406 19.7134L25.6713 17.9827C25.7421 17.9119 25.8233 17.8576 25.9092 17.8115L26.6099 17.9078C26.9468 17.9538 27.2452 18.0989 27.4735 18.3265L27.4742 18.3272C27.7025 18.5555 27.8469 18.8539 27.893 19.1901L27.9892 19.8914C27.9431 19.9767 27.8881 20.0585 27.818 20.1287ZM32.7756 13.9239L28.8858 17.8136C28.8528 17.7757 28.8267 17.7338 28.7903 17.6974L28.1027 17.0098C28.0669 16.974 28.0236 16.9486 27.9858 16.9156L31.8742 13.0266C31.8749 13.0259 31.8762 13.0252 31.8769 13.0245L40.5847 4.31767C40.835 4.09764 41.2173 4.00482 41.5061 4.29498C41.7983 4.58651 41.7034 4.97018 41.5082 5.19159L32.7756 13.9239ZM39.9184 15.5122L34.5854 14.058L41.8354 6.80878L44.2592 11.1722L39.9184 15.5122Z"/>
<path d="M52.7135 10.957L49.7981 5.70934C50.2251 4.92068 50.1206 3.96425 49.4777 3.32204C48.8423 2.68603 47.8983 2.57945 47.0979 3.00644L41.8425 0.086962C41.5737 -0.0629313 41.2395 -0.015488 41.0229 0.201789L36.033 5.19159C35.8583 5.36623 35.7903 5.62064 35.8556 5.85854L37.622 12.3342L33.6064 16.349C32.9154 16.2933 32.2017 16.5065 31.699 17.0098L20.4086 28.3006C19.9555 28.7537 19.7059 29.3581 19.7059 30.003C19.7059 30.5786 19.9149 31.1162 20.2807 31.5481L14.2016 37.6263C13.9328 37.8951 13.9328 38.3297 14.2016 38.5985C14.3357 38.7326 14.5111 38.8 14.6871 38.8C14.8631 38.8 15.0391 38.7326 15.1732 38.5985L21.2523 32.5203C21.6841 32.8861 22.2218 33.0944 22.7973 33.0944C23.4416 33.0944 24.0453 32.8448 24.4992 32.3917L35.7903 21.1016C36.2434 20.6485 36.493 20.0441 36.493 19.3998C36.493 19.3228 36.4779 19.2486 36.471 19.1729L40.4653 15.1781L46.9418 16.9445C47.0016 16.9603 47.0621 16.9685 47.1226 16.9685C47.3028 16.9685 47.4781 16.8977 47.6088 16.7671L52.5987 11.7773C52.8153 11.5607 52.8627 11.2258 52.7135 10.957ZM37.2872 5.88192L41.628 1.5412L45.9915 3.96494L38.7421 11.2141L37.2872 5.88192ZM23.5269 31.4195C23.1398 31.8066 22.4549 31.8066 22.0685 31.4195L21.3809 30.7319C21.1877 30.5387 21.0804 30.2795 21.0804 30.003C21.0804 29.726 21.187 29.4674 21.3809 29.2735L22.6213 28.0331L24.7673 30.1791L23.5269 31.4195ZM25.7396 29.2068L23.5936 27.0609L24.9791 25.6754L27.1251 27.8213L25.7396 29.2068ZM28.0974 26.8491L25.9514 24.7032L27.4744 23.1808L29.6204 25.3268L28.0974 26.8491ZM30.592 24.3539L28.446 22.2079L29.9683 20.6856L32.1144 22.8316L30.592 24.3539ZM34.818 20.1287L33.0873 21.8593L30.9406 19.7134L32.6713 17.9827C32.7421 17.9119 32.8233 17.8576 32.9092 17.8115L33.6099 17.9078C33.9468 17.9538 34.2452 18.0989 34.4735 18.3265L34.4742 18.3272C34.7025 18.5555 34.8469 18.8539 34.893 19.1901L34.9892 19.8914C34.9431 19.9767 34.8881 20.0585 34.818 20.1287ZM39.7756 13.9239L35.8858 17.8136C35.8528 17.7757 35.8267 17.7338 35.7903 17.6974L35.1027 17.0098C35.0669 16.974 35.0236 16.9486 34.9858 16.9156L38.8742 13.0266C38.8749 13.0259 38.8762 13.0252 38.8769 13.0245L47.5847 4.31767C47.835 4.09764 48.2173 4.00482 48.5061 4.29498C48.7983 4.58651 48.7034 4.97018 48.5082 5.19159L39.7756 13.9239ZM46.9184 15.5122L41.5854 14.058L48.8354 6.80878L51.2592 11.1722L46.9184 15.5122Z"/>
</svg>
