<svg width="39" height="39" viewBox="0 0 39 39" fill="none" xmlns="http://www.w3.org/2000/svg">
<path d="M19.222 18.7865C21.8029 18.7865 24.0375 17.8608 25.8639 16.0344C27.6896 14.2084 28.6156 11.9741 28.6156 9.39293C28.6156 6.81261 27.6899 4.57804 25.8636 2.75141C24.0372 0.925665 21.8026 0 19.222 0C16.6408 0 14.4065 0.925665 12.5805 2.7517C10.7545 4.57774 9.82849 6.81231 9.82849 9.39293C9.82849 11.9741 10.7545 14.2087 12.5805 16.0347C14.4071 17.8605 16.6417 18.7865 19.222 18.7865V18.7865ZM14.1968 4.36768C15.5979 2.96653 17.2416 2.28545 19.222 2.28545C21.2022 2.28545 22.8461 2.96653 24.2476 4.36768C25.6487 5.76912 26.3301 7.41306 26.3301 9.39293C26.3301 11.3734 25.6487 13.017 24.2476 14.4185C22.8461 15.8199 21.2022 16.501 19.222 16.501C17.2422 16.501 15.5985 15.8196 14.1968 14.4185C12.7953 13.0173 12.1139 11.3734 12.1139 9.39293C12.1139 7.41306 12.7953 5.76912 14.1968 4.36768Z" fill="white"/>
<path d="M35.6583 29.989C35.6056 29.2291 35.4991 28.4001 35.3423 27.5248C35.184 26.6428 34.9801 25.8091 34.7362 25.0471C34.4838 24.2595 34.1414 23.4817 33.7174 22.7364C33.2779 21.9627 32.7613 21.2891 32.1817 20.7348C31.5756 20.1548 30.8335 19.6886 29.9754 19.3485C29.1203 19.0102 28.1726 18.8388 27.1588 18.8388C26.7607 18.8388 26.3757 19.0022 25.6321 19.4863C25.1745 19.7847 24.6392 20.1298 24.0417 20.5116C23.5309 20.8371 22.8388 21.1421 21.9839 21.4182C21.1499 21.6881 20.3031 21.825 19.467 21.825C18.6315 21.825 17.7846 21.6881 16.95 21.4182C16.0961 21.1424 15.4037 20.8374 14.8937 20.5119C14.3019 20.1337 13.7663 19.7886 13.3018 19.486C12.5588 19.0019 12.1738 18.8385 11.7757 18.8385C10.7617 18.8385 9.81427 19.0102 8.95942 19.3488C8.10189 19.6883 7.35951 20.1545 6.75282 20.7351C6.17319 21.2897 5.65665 21.963 5.21748 22.7364C4.79407 23.4817 4.45129 24.2592 4.19897 25.0474C3.95528 25.8094 3.75146 26.6428 3.59317 27.5248C3.43607 28.3989 3.32984 29.2282 3.27718 29.9899C3.2254 30.7347 3.19922 31.5098 3.19922 32.2929C3.19922 34.3287 3.84638 35.9768 5.12256 37.1923C6.38297 38.3917 8.05042 38.9999 10.0788 38.9999H28.8575C30.8853 38.9999 32.5528 38.3917 33.8135 37.1923C35.0899 35.9777 35.7371 34.329 35.7371 32.2926C35.7368 31.5068 35.7103 30.7317 35.6583 29.989V29.989ZM32.2377 35.5365C31.4048 36.3291 30.2991 36.7145 28.8572 36.7145H10.0788C8.63658 36.7145 7.5309 36.3291 6.69836 35.5368C5.8816 34.7593 5.48467 33.6979 5.48467 32.2929C5.48467 31.5622 5.50877 30.8406 5.55698 30.1479C5.60399 29.4683 5.7001 28.7218 5.84262 27.9285C5.98336 27.1451 6.16248 26.4099 6.37553 25.7442C6.57994 25.106 6.85874 24.474 7.20449 23.8652C7.53447 23.285 7.91414 22.7872 8.33308 22.3861C8.72495 22.0109 9.21888 21.7039 9.80088 21.4736C10.3391 21.2605 10.9441 21.1439 11.6007 21.1263C11.6808 21.1689 11.8233 21.2501 12.0542 21.4007C12.524 21.7068 13.0656 22.0562 13.6642 22.4385C14.3391 22.8688 15.2085 23.2574 16.2472 23.5927C17.3092 23.9361 18.3922 24.1104 19.4673 24.1104C20.5423 24.1104 21.6257 23.9361 22.687 23.593C23.7266 23.2571 24.5958 22.8688 25.2715 22.4379C25.8842 22.0463 26.4105 21.7071 26.8803 21.4007C27.1112 21.2504 27.2538 21.1689 27.3338 21.1263C27.9908 21.1439 28.5957 21.2605 29.1343 21.4736C29.716 21.7039 30.2099 22.0112 30.6018 22.3861C31.0207 22.7869 31.4004 23.2847 31.7303 23.8655C32.0764 24.474 32.3555 25.1063 32.5596 25.7439C32.7729 26.4104 32.9524 27.1454 33.0928 27.9282C33.235 28.723 33.3314 29.4698 33.3785 30.1482V30.1488C33.427 30.8388 33.4514 31.5601 33.4517 32.2929C33.4514 33.6982 33.0544 34.7593 32.2377 35.5365V35.5365Z" fill="white"/>
</svg>
